<svg width="99" height="10" fill="none" xmlns="http://www.w3.org/2000/svg"><path d="M4.94 7.917V8.97H0V.13h4.81v1.066H1.131v2.769h3.29v1.066H1.13v2.886h3.81zM6.776 8.97V.13H7.96a45.732 45.732 0 012.171 3.406 43.124 43.124 0 011.872 3.562l-.13-3.38V.13h1.105v8.84h-1.183A81.649 81.649 0 009.91 5.278a41.536 41.536 0 00-2.106-3.523l.078 3.601V8.97H6.776zm13.354-.884c.546 0 .966-.117 1.261-.351.295-.243.442-.594.442-1.053 0-.381-.104-.702-.312-.962-.2-.26-.529-.46-.988-.598L19.48 4.81c-.659-.2-1.144-.498-1.456-.897-.312-.407-.468-.906-.468-1.495 0-.45.087-.858.26-1.222.182-.364.468-.654.858-.871.399-.217.919-.325 1.56-.325.39 0 .793.048 1.209.143.416.087.836.23 1.261.429l-.364.975a6.53 6.53 0 00-1.131-.39 3.727 3.727 0 00-.949-.13c-.494 0-.88.104-1.157.312-.269.2-.403.533-.403 1.001 0 .338.091.624.273.858.182.225.507.412.975.559l1.053.312c1.317.39 1.976 1.23 1.976 2.522 0 .745-.225 1.352-.676 1.82-.45.46-1.174.689-2.171.689-.407 0-.84-.048-1.3-.143a7.706 7.706 0 01-1.404-.481l.351-.962c.46.208.871.355 1.235.442.373.087.745.13 1.118.13zm9.32.884l-.664-2.054h-3.354L24.77 8.97h-1.105L26.602.13h1.066l2.951 8.84h-1.17zM26.25 4.368l-.494 1.521h2.691l-.494-1.521-.845-2.73-.858 2.73zM37.277.13l-2.82 8.84h-1.145L30.478.13h1.196l1.404 4.485.845 2.834.858-2.847L36.16.13h1.118zm7.343 3.445v1.937c0 1.1-.277 1.976-.832 2.626-.546.641-1.335.962-2.366.962-1.031 0-1.824-.32-2.38-.962-.545-.65-.818-1.525-.818-2.626V3.575c0-1.092.273-1.959.819-2.6C39.598.325 40.39 0 41.422 0s1.82.325 2.366.975c.555.641.832 1.508.832 2.6zm-1.17 0c0-.806-.173-1.426-.52-1.859-.338-.442-.84-.663-1.508-.663-.659 0-1.161.221-1.508.663-.347.433-.52 1.053-.52 1.859v1.937c0 .815.173 1.443.52 1.885.347.442.85.663 1.508.663.667 0 1.17-.221 1.508-.663.347-.442.52-1.07.52-1.885V3.575zm4.569 5.395h-1.131V.13h1.13v8.84zm3.767-3.458V8.97h-1.13V.13h2.768c.832 0 1.474.221 1.924.663.46.433.69 1.014.69 1.742v.559c0 .52-.122.97-.365 1.352a2.082 2.082 0 01-1.014.845 27.305 27.305 0 011.924 3.679h-1.3a29.257 29.257 0 00-1.729-3.458h-1.768zm1.638-4.342h-1.638v3.302h1.638c.442 0 .793-.121 1.053-.364.26-.251.39-.59.39-1.014v-.559c0-.433-.13-.767-.39-1.001-.26-.243-.61-.364-1.053-.364zm7.61 7.8V.13h2.756c.85 0 1.495.225 1.937.676.45.442.676 1.036.676 1.781v.689c0 .745-.225 1.343-.676 1.794-.442.45-1.088.676-1.937.676h-1.625V8.97h-1.13zm2.756-7.774h-1.625v3.497h1.625c.468 0 .823-.126 1.066-.377.251-.251.377-.598.377-1.04v-.689c0-.433-.126-.771-.377-1.014-.243-.251-.598-.377-1.066-.377zm9.288 6.721V8.97h-4.836V.13h1.13v7.787h3.706zM74.214.13h1.17v5.668c0 .71.147 1.265.442 1.664.303.399.772.598 1.404.598.641 0 1.11-.2 1.404-.598.295-.399.442-.953.442-1.664V.13h1.17v5.668c0 1.031-.251 1.842-.754 2.431-.502.58-1.257.871-2.262.871-1.014 0-1.772-.29-2.275-.871-.494-.59-.74-1.4-.74-2.431V.13zm10.289 7.956c.546 0 .966-.117 1.26-.351.295-.243.443-.594.443-1.053 0-.381-.104-.702-.312-.962-.2-.26-.529-.46-.988-.598l-1.053-.312c-.659-.2-1.144-.498-1.456-.897-.312-.407-.468-.906-.468-1.495 0-.45.087-.858.26-1.222.182-.364.468-.654.858-.871.398-.217.919-.325 1.56-.325.39 0 .793.048 1.209.143.416.087.836.23 1.26.429l-.363.975a6.53 6.53 0 00-1.131-.39 3.727 3.727 0 00-.95-.13c-.493 0-.879.104-1.156.312-.269.2-.403.533-.403 1.001 0 .338.09.624.273.858.182.225.507.412.975.559l1.053.312c1.317.39 1.976 1.23 1.976 2.522 0 .745-.225 1.352-.676 1.82-.45.46-1.175.689-2.171.689a6.41 6.41 0 01-1.3-.143 7.706 7.706 0 01-1.404-.481l.35-.962c.46.208.872.355 1.236.442.372.087.745.13 1.118.13zM98.29 4.628l-3.094 2.509-.455-.598 1.937-1.755H91.05v-.871h5.642l-1.95-1.807.455-.598 3.094 2.535v.585z" fill="#000"/></svg>