<svg width="20" height="18" fill="none" xmlns="http://www.w3.org/2000/svg"><path d="M17.944 5.453c.013.152.013.303.013.455 0 4.622-4.124 9.948-11.663 9.948-2.322 0-4.48-.574-6.294-1.57.33.033.647.044.99.044 1.916 0 3.68-.552 5.089-1.494-1.802-.033-3.312-1.04-3.833-2.425.254.033.508.054.774.054.368 0 .736-.043 1.079-.119C2.221 10.021.812 8.614.812 6.915V6.87c.546.26 1.18.422 1.853.444C1.56 6.687.838 5.615.838 4.403c0-.65.203-1.245.558-1.764 2.018 2.121 5.05 3.507 8.452 3.659a3.392 3.392 0 01-.102-.801C9.746 3.57 11.574 2 13.846 2c1.18 0 2.245.422 2.994 1.104a8.959 8.959 0 002.602-.844c-.305.812-.952 1.494-1.802 1.927A9.355 9.355 0 0020 3.645a8.231 8.231 0 01-2.056 1.808z" fill="#9A9393" opacity=".8"/></svg>